<?xml version="1.0" standalone="no"?>
<!DOCTYPE svg PUBLIC "-//W3C//DTD SVG 20010904//EN"
 "http://www.w3.org/TR/2001/REC-SVG-20010904/DTD/svg10.dtd">
<svg version="1.0" xmlns="http://www.w3.org/2000/svg"
 width="252.000000pt" height="200.000000pt" viewBox="0 0 252.000000 200.000000"
 preserveAspectRatio="xMidYMid meet">

<g transform="translate(0.000000,200.000000) scale(0.100000,-0.100000)"
fill="#000000" stroke="none">
<path d="M1002 1730 c-18 -11 -35 -27 -38 -35 -8 -19 13 -45 35 -45 10 0 30
-13 46 -30 21 -22 28 -40 29 -72 1 -39 -2 -44 -33 -59 -19 -9 -43 -14 -53 -11
-23 6 -35 49 -19 73 17 28 13 47 -10 54 -35 11 -87 -4 -109 -32 -34 -43 -26
-60 34 -72 22 -5 34 -15 40 -34 9 -24 5 -32 -34 -72 -46 -47 -73 -55 -106 -31
-15 11 -19 27 -19 72 0 41 -4 59 -16 67 -57 36 -172 -87 -152 -164 5 -20 10
-21 69 -14 60 6 65 5 90 -20 29 -29 29 -27 -12 -128 -34 -82 -63 -97 -101 -53
-13 15 -23 33 -23 40 0 19 -36 48 -56 44 -54 -10 -83 -145 -45 -205 26 -41 53
-42 88 -3 39 45 103 38 103 -12 0 -20 52 -45 172 -83 79 -25 80 -25 171 -9 51
9 114 25 141 36 48 19 48 19 100 -1 28 -11 95 -27 148 -35 l97 -16 96 34 c114
41 145 59 145 86 0 51 109 51 135 1 54 -105 141 35 89 144 -26 56 -58 54 -89
-5 -17 -33 -61 -53 -106 -48 -38 3 -49 20 -71 101 -12 47 -12 49 12 68 30 23
63 24 80 4 33 -39 65 1 49 60 -29 105 -109 140 -109 49 0 -40 -29 -74 -64 -74
-26 0 -86 62 -86 88 0 8 18 32 40 54 37 37 44 40 78 34 76 -12 93 36 36 104
-32 38 -74 60 -113 60 -38 0 -47 -26 -25 -73 15 -32 16 -40 3 -73 -8 -20 -25
-45 -39 -56 -25 -18 -25 -18 -115 28 -94 48 -107 64 -96 114 4 17 21 32 54 49
36 18 47 28 47 47 0 64 -179 101 -210 44 -9 -16 -4 -26 25 -58 37 -42 48 -99
23 -120 -7 -5 -49 -12 -92 -13 -77 -4 -80 -3 -100 24 -27 36 -28 106 -3 131
21 22 22 52 1 60 -33 13 -100 5 -132 -14z m108 -420 c96 -49 118 -178 45 -258
-66 -74 -164 -80 -235 -16 -48 44 -64 82 -58 144 12 120 138 186 248 130z
m458 -7 c48 -35 72 -81 72 -135 0 -64 -24 -114 -69 -143 -103 -67 -230 -20
-261 96 -20 74 11 145 85 191 40 25 133 21 173 -9z"/>
<path d="M990 1273 c-31 -12 -70 -58 -76 -90 -14 -72 39 -133 113 -133 112 0
160 123 79 199 -24 23 -87 36 -116 24z m129 -61 c11 -21 -11 -62 -33 -62 -23
0 -39 28 -32 55 8 31 50 35 65 7z"/>
<path d="M1413 1260 c-39 -24 -53 -48 -53 -95 0 -81 68 -135 143 -114 75 20
109 106 68 172 -34 56 -102 72 -158 37z m147 -45 c23 -28 -9 -72 -45 -59 -36
14 -24 74 15 74 10 0 23 -7 30 -15z"/>
<path d="M1724 890 c-22 -10 -73 -28 -112 -41 l-72 -23 0 -87 c0 -87 0 -88 32
-110 18 -13 43 -22 58 -21 17 2 34 -6 49 -22 20 -22 23 -32 18 -70 -7 -52 8
-72 48 -62 59 15 127 109 111 153 -5 12 -16 14 -62 8 -61 -7 -97 7 -109 44 -7
24 39 119 62 128 24 9 46 -10 56 -48 5 -19 14 -37 20 -41 19 -12 48 12 68 55
22 50 24 77 5 103 -14 19 -15 19 -45 -4 -17 -12 -39 -22 -50 -22 -25 0 -44 34
-36 60 4 11 5 20 3 19 -2 0 -21 -9 -44 -19z"/>
<path d="M566 884 c-37 -36 -3 -149 44 -149 20 0 27 7 36 35 6 19 18 39 26 44
25 15 66 -2 83 -35 19 -36 13 -61 -23 -90 -23 -18 -35 -20 -83 -15 -44 5 -59
3 -69 -9 -29 -35 21 -136 76 -149 35 -9 54 9 54 51 0 45 14 69 51 88 36 19 61
13 88 -21 l19 -25 46 23 46 22 0 85 -1 86 -118 38 -119 39 -21 -21 c-26 -26
-49 -26 -81 -1 -30 24 -34 24 -54 4z"/>
<path d="M905 568 c-33 -17 -76 -31 -95 -32 -31 -1 -35 -4 -38 -31 -4 -44 52
-97 105 -99 l38 -1 0 59 c0 82 14 89 102 48 49 -22 71 -39 78 -57 13 -35 -1
-55 -61 -85 -27 -14 -50 -33 -52 -42 -8 -41 82 -88 167 -88 84 0 104 37 51 97
-32 36 -40 89 -18 111 7 7 35 12 63 12 27 0 67 5 89 9 21 5 45 7 52 4 25 -9
28 -52 7 -81 -32 -45 -34 -50 -17 -66 50 -50 218 35 174 89 -7 8 -24 15 -39
15 -33 0 -51 17 -51 47 0 18 13 32 50 55 79 49 59 67 -48 41 -123 -30 -442
-19 -487 17 -5 4 -37 -6 -70 -22z"/>
</g>
</svg>
